<?xml version="1.0" standalone="no"?>
<!DOCTYPE svg PUBLIC "-//W3C//DTD SVG 20010904//EN"
 "http://www.w3.org/TR/2001/REC-SVG-20010904/DTD/svg10.dtd">
<svg version="1.0" xmlns="http://www.w3.org/2000/svg"
 width="800.000000pt" height="800.000000pt" viewBox="0 0 800.000000 800.000000"
 preserveAspectRatio="xMidYMid meet">

<g transform="translate(0.000000,800.000000) scale(0.100000,-0.100000)"
fill="#000000" stroke="none">
<path d="M4071 6190 c-324 -69 -580 -322 -644 -635 l-14 -70 -654 -5 c-709 -5
-676 -3 -736 -59 -57 -54 -58 -56 -63 -454 l-5 -368 -58 -24 c-139 -56 -280
-172 -365 -299 -286 -427 -114 -1008 358 -1207 l65 -28 5 -425 5 -424 30 -44
c17 -23 51 -54 75 -68 l45 -25 828 -3 827 -3 0 -355 c0 -390 1 -399 60 -429
51 -27 105 -13 137 34 16 23 18 62 21 389 l3 362 249 0 250 0 0 -355 c0 -391
1 -400 60 -430 37 -19 63 -19 101 1 56 29 59 48 59 433 l0 350 823 3 822 3 45
25 c24 14 58 45 75 68 l30 44 3 430 3 429 47 21 c188 82 358 259 432 450 153
396 -19 842 -397 1029 l-83 41 0 364 c0 339 -1 367 -19 402 -11 20 -32 49 -48
64 -62 60 -43 58 -752 58 l-650 0 -11 58 c-33 158 -104 294 -213 409 -107 112
-230 187 -382 230 -61 17 -303 26 -364 13z m258 -211 c39 -6 104 -29 160 -56
115 -55 207 -142 263 -249 31 -60 68 -160 68 -186 0 -4 -268 -8 -595 -8 l-594
0 6 33 c31 163 161 330 318 408 127 63 240 80 374 58z m1971 -2214 l0 -1495
-2065 0 -2065 0 0 1479 c0 814 3 1486 6 1495 6 15 197 16 2065 16 l2059 0 0
-1495z m-4340 61 c0 -367 -3 -537 -11 -541 -14 -9 -110 55 -165 111 -59 59
-117 151 -144 227 -28 79 -38 245 -20 326 18 81 70 187 124 254 47 56 176 157
203 157 11 0 13 -94 13 -534z m4639 469 c60 -46 136 -137 171 -205 10 -19 28
-68 40 -108 19 -63 22 -90 18 -185 -6 -125 -29 -203 -91 -299 -58 -91 -190
-209 -216 -193 -12 7 -16 1017 -4 1028 11 12 20 8 82 -38z"/>
<path d="M2594 4816 c-20 -20 -34 -44 -34 -58 0 -16 56 -99 160 -238 88 -117
160 -221 160 -231 0 -31 -41 -102 -90 -154 -25 -27 -55 -63 -65 -80 -10 -16
-42 -59 -71 -95 -100 -125 -111 -169 -54 -230 20 -22 37 -30 62 -30 28 0 44
11 111 81 42 44 77 87 77 95 0 8 19 36 43 62 24 26 62 71 86 100 43 52 44 53
62 33 10 -10 22 -21 27 -22 4 -2 63 -77 130 -166 67 -89 131 -167 141 -173 39
-21 73 -12 113 30 21 23 38 50 38 60 0 31 -31 79 -173 268 -74 97 -139 186
-145 198 -9 17 -6 26 13 50 13 16 25 34 25 39 0 6 27 42 60 80 33 39 60 75 60
80 0 6 25 39 55 75 56 66 105 150 105 181 0 9 -13 31 -29 48 -24 25 -37 31
-71 31 -37 0 -48 -6 -100 -56 -32 -30 -66 -72 -76 -92 -9 -20 -37 -60 -63 -88
-25 -27 -63 -71 -84 -97 -27 -34 -42 -45 -53 -39 -7 4 -68 80 -134 167 -145
193 -158 205 -212 205 -32 0 -47 -7 -74 -34z"/>
<path d="M4754 4816 c-20 -20 -34 -44 -34 -58 0 -16 56 -99 160 -238 88 -117
160 -222 160 -233 0 -25 -56 -109 -121 -184 -27 -31 -49 -61 -49 -68 0 -6 -23
-36 -50 -67 -28 -31 -64 -82 -80 -113 -28 -53 -29 -58 -15 -85 21 -40 62 -70
97 -70 35 0 128 83 168 150 14 23 49 69 78 103 29 34 59 76 67 94 13 31 46 50
65 38 6 -4 71 -87 145 -185 74 -99 144 -184 154 -190 39 -21 73 -12 113 30 64
69 70 57 -198 406 -103 135 -101 128 -70 168 14 19 26 39 26 45 0 5 27 40 60
78 33 37 60 72 60 78 0 5 25 39 55 75 56 66 105 150 105 181 0 9 -13 31 -29
48 -23 25 -37 31 -71 31 -36 0 -48 -6 -95 -50 -29 -28 -66 -70 -81 -93 -35
-52 -171 -224 -183 -231 -15 -10 -43 22 -166 187 -65 87 -128 165 -139 173
-11 8 -38 14 -59 14 -31 0 -46 -7 -73 -34z"/>
<path d="M3054 3436 c-12 -8 -43 -20 -69 -27 -83 -21 -255 -202 -255 -268 0
-9 -5 -22 -11 -28 -7 -7 -14 -54 -16 -105 -4 -82 -2 -102 22 -172 40 -119 89
-181 198 -253 99 -65 148 -77 287 -69 63 3 153 12 200 20 47 7 132 21 190 31
58 9 125 23 150 30 25 7 81 16 125 20 44 4 98 13 120 20 22 7 65 16 95 19 30
3 84 13 120 21 82 19 218 43 338 61 51 7 97 16 102 19 9 5 172 35 328 60 52 9
101 19 110 24 10 5 53 12 97 16 95 8 134 23 163 60 34 43 29 87 -16 135 -34
35 -44 40 -83 40 -24 0 -76 9 -114 20 -38 11 -83 20 -99 20 -15 0 -65 9 -110
19 -44 11 -112 25 -151 31 -38 6 -99 16 -135 21 -36 6 -101 19 -145 30 -44 11
-101 19 -128 19 -26 0 -73 9 -104 20 -32 11 -76 20 -98 20 -22 0 -73 9 -113
20 -39 11 -91 20 -114 20 -24 0 -81 8 -128 19 -81 19 -240 48 -400 71 -41 7
-94 16 -117 21 -67 15 -215 11 -239 -5z m276 -220 c123 -18 268 -43 400 -67
117 -22 142 -26 385 -69 189 -33 370 -66 458 -82 67 -13 79 -23 36 -32 -17 -3
-45 -18 -62 -32 -27 -23 -36 -25 -77 -19 -66 11 -119 9 -135 -5 -8 -6 -56 -16
-107 -20 -51 -5 -115 -16 -142 -25 -27 -8 -68 -15 -90 -15 -23 -1 -68 -7 -101
-16 -33 -8 -98 -19 -143 -24 -46 -5 -90 -14 -97 -20 -8 -7 -56 -15 -107 -20
-51 -4 -106 -14 -123 -20 -48 -19 -261 -32 -321 -20 -67 14 -133 71 -170 146
-43 87 -27 194 38 264 84 91 155 105 358 76z"/>
</g>
</svg>
